# AST/ASF file generated using VICON BodyLanguage
# -----------------------------------------------
:version 1.10
:name VICON
:units
  mass 1.0
  length 0.45
  angle deg
:documentation
   .ast/.asf automatically generated from VICON data using
   VICON BodyBuilder and BodyLanguage model FoxedUp or BRILLIANT.MOD
:root
   order TX TY TZ RX RY RZ
   axis XYZ
   position 0 0 0  
   orientation 0 0 0 
:bonedata
  begin
     id 1 
     name lhipjoint
     direction 0.588788 -0.725889 0.355548 
     length 2.37778 
     axis 0 0 0  XYZ
  end
  begin
     id 2 
     name lfemur
     direction 0.34202 -0.939693 0  
     length 6.86393  
     axis 0 0 20  XYZ
    dof rx ry rz
    limits (-160.0 20.0)
           (-70.0 70.0)
           (-60.0 70.0)
  end
  begin
     id 3 
     name ltibia
     direction 0.34202 -0.939693 0   
     length 7.32851   
     axis 0 0 20   XYZ
    dof rx
    limits (-10.0 170.0)
  end
  begin
     id 4 
     name lfoot
     direction 0.0626533 -0.172138 0.983078   
     length 1.98929   
     axis -90 7.62852e-016 20   XYZ
    dof rx rz
    limits (-45.0 90.0)
           (-70.0 20.0)
  end
  begin
     id 5 
     name ltoes
     direction 1.53647e-011 -4.21734e-011 1   
     length 1.00479   
     axis -90 7.62852e-016 20   XYZ
    dof rx
    limits (-90.0 20.0)
  end
  begin
     id 6 
     name rhipjoint
     direction -0.59141 -0.724168 0.354705   
     length 2.38343  
     axis 0 0 0  XYZ 
  end
  begin
     id 7 
     name rfemur
     direction -0.34202 -0.939693 0   
     length 6.95589   
     axis 0 0 -20   XYZ
    dof rx ry rz
    limits (-160.0 20.0)
           (-70.0 70.0)
           (-70.0 60.0)
  end
  begin
     id 8 
     name rtibia
     direction -0.34202 -0.939693 0   
     length 7.32327   
     axis 0 0 -20   XYZ
    dof rx
    limits (-10.0 170.0)
 end
 begin
     id 9 
     name rfoot
     direction -0.0660461 -0.18146 0.981178   
     length 1.85272  
     axis -90 -7.62852e-016 -20   XYZ
    dof rx rz
    limits (-45.0 90.0)
           (-20.0 70.0)
  end
  begin
     id 10 
     name rtoes
     direction -1.53586e-011 -4.21988e-011 1   
     length 0.93746   
     axis -90 -7.62852e-016 -20   XYZ
    dof rx
    limits (-90.0 20.0)
  end
  begin
     id 11 
     name lowerback
     direction -0.0107982 0.991059 0.13299   
     length 1.98691   
     axis 0 0 0   XYZ
    dof rx ry rz
    limits (-20.0 45.0)
           (-30.0 30.0)
           (-30.0 30.0)
  end
  begin
     id 12 
     name upperback
     direction 0.0076296 0.999916 0.0104576   
     length 1.99501   
     axis 0 0 0   XYZ
    dof rx ry rz
    limits (-20.0 45.0)
           (-30.0 30.0)
           (-30.0 30.0)
  end
  begin
     id 13 
     name thorax
     direction 0.01176 0.998615 -0.0512909   
     length 2.03144   
     axis 0 0 0   XYZ
    dof rx ry rz
    limits (-20.0 45.0)
           (-30.0 30.0)
           (-30.0 30.0)
  end
  begin
     id 14 
     name lowerneck
     direction -0.0171909 0.999644 0.0204011   
     length 1.71818   
     axis 0 0 0   XYZ
    dof rx ry rz
    limits (-20.0 45.0)
           (-30.0 30.0)
           (-30.0 30.0)
  end
  begin
     id 15 
     name upperneck
     direction 0.0250902 0.997482 -0.0663316   
     length 1.66199   
     axis 0 0 0   XYZ
    dof rx ry rz
    limits (-20.0 45.0)
           (-30.0 30.0)
           (-30.0 30.0)
  end
  begin
     id 16
     name head
     direction 0.00881535 0.99956 -0.0283365  
     length 1.81545  
     axis 0 0 0   XYZ
    dof rx ry rz
    limits (-20.0 45.0)
           (-30.0 30.0)
           (-30.0 30.0)
  end
  begin
     id 17 
     name lclavicle
     direction 0.840411 0.486876 -0.238035  
     length 3.30409  
     axis 0 0 0   XYZ
    dof ry rz
    limits (-20.0 10.0)
           (0.0 20.0)
  end
  begin
     id 18 
     name lhumerus
     direction 1 -4.48977e-011 -5.16239e-027   
     length 4.62672   
     axis 180 -30 -90   XYZ
    dof rx ry rz
    limits (-60.0 90.0)
           (-90.0 90.0)
           (-90.0 90.0)
  end
  begin
     id 19
     name lradius
     direction 1 -4.48977e-011 -8.71171e-027   
     length 3.11018   
     axis 180 -30 -90   XYZ
    dof rx
    limits (-10.0 170.0)
  end
  begin
     id 20
     name lwrist
     direction 1 -4.48912e-011 -1.03764e-026   
     length 1.55509   
     axis 9.09556e-015 90 90   XYZ
    dof ry
    limits (-180.0 0.0)
 end
  begin
     id 21 
     name lhand
     direction 1 -4.49072e-011 -2.07528e-026   
     length 0.743834   
     axis 1.3242e-014 90 90   XYZ
    dof rx rz
    limits (-90.0 90.0)
           (-45.0 45.0)
  end
  begin
     id 22 
     name lfingers
     direction 1 -4.48909e-011 -4.15056e-026   
     length 0.599698   
     axis 2.64841e-014 90 90   XYZ
    dof rx
    limits (0.0 90.0)
  end
  begin
     id 23
     name lthumb
     direction 0.707107 -6.35013e-011 0.707107   
     length 0.86105   
     axis -90 45 2.85299e-015   XYZ
    dof rx rz
    limits (-45.0 45.0)
           (-45.0 45.0)
  end
  begin
     id 24 
     name rclavicle
     direction -0.835208 0.500237 -0.228452   
     length 3.2716  
     axis 0 0 0   XYZ 
    dof ry rz
    limits (-10.0 20.0)
           (-20.0 0.0)
  end
  begin
     id 25 
     name rhumerus
     direction -1 -4.48978e-011 -5.1953e-028  
     length 4.55919   
     axis 180 30 90   XYZ
    dof rx ry rz
    limits (-90.0 60.0)
           (-90.0 90.0)
           (-90.0 90.0)
  end
  begin
     id 26 
     name rradius
     direction -1 -4.48961e-011 -5.99546e-027   
     length 3.22748   
     axis 180 30 90   XYZ
    dof rx
    limits (-10.0 170.0)
  end
  begin
     id 27 
     name rwrist
     direction -1 -4.48986e-011 -1.03764e-026   
     length 1.61374   
     axis 9.09556e-015 -90 -90   XYZ
    dof ry
    limits (-180.0 0.0)
  end
  begin
     id 28
     name rhand
     direction -1 -4.4899e-011 -2.07528e-026   
     length 0.700882   
     axis 1.3242e-014 -90 -90   XYZ
    dof rx rz
    limits (-90.0 90.0)
           (-45.0 45.0)
  end
  begin
     id 29
     name rfingers
     direction -1 -4.48991e-011 -4.15056e-026   
     length 0.565069   
     axis 2.64841e-014 -90 -90   XYZ
    dof rx
    limits (0.0 90.0)
  end
  begin
     id 30
     name rthumb
     direction -0.707107 -6.34804e-011 0.707107   
     length 0.811329   
     axis -90 -45 -2.85299e-015   XYZ
    dof rx rz
    limits (-45.0 45.0)
           (-45.0 45.0)
  end
:hierarchy
  begin
    root lhipjoint rhipjoint lowerback
    lhipjoint lfemur
    lfemur ltibia
    ltibia lfoot
    lfoot ltoes
    rhipjoint rfemur
    rfemur rtibia
    rtibia rfoot
    rfoot rtoes
    lowerback upperback
    upperback thorax
    thorax lowerneck lclavicle rclavicle
    lowerneck upperneck
    upperneck head
    lclavicle lhumerus
    lhumerus lradius
    lradius lwrist
    lwrist lhand lthumb
    lhand lfingers
    rclavicle rhumerus
    rhumerus rradius
    rradius rwrist
    rwrist rhand rthumb
    rhand rfingers
  end

#!OML:ASF F:\VICON\USERDATA\INSTALL\SteveWalk\SteveWalk.ASF
:FULLY-SPECIFIED
:DEGREES
49
root -0.339324 15.8135 -31.5469 17.4212 -3.76197 3.77098
lowerback -16.663 1.36481 -6.52796
upperback -4.98617 2.97242 -2.11605
thorax 3.77335 1.46002 2.02435
lowerneck -4.04697 -2.31345 -0.126821
upperneck 5.81054 -3.19654 1.72387
head 2.56929 -1.5395 0.460579
rclavicle 2.21629e-014 -1.94809e-014
rhumerus -28.6748 2.50714 -84.2223
rradius 61.706
rwrist -17.8274
rhand -19.1943 -33.6347
rfingers 7.12502
rthumb 7.11761 -63.495
lclavicle 2.21629e-014 -1.94809e-014
lhumerus -80.0129 39.0507 14.2404
lradius 9.80683
lwrist -59.5241
lhand -17.0913 -14.41
lfingers 7.12502
lthumb 9.14724 15.3716
rfemur -4.40075 -3.64126 14.6749
rtibia 46.9886
rfoot 12.8904 16.5471
rtoes -17.3178
lfemur -52.165 -1.08883 -26.1848
ltibia 39.7058
lfoot -5.76352 -2.59877
ltoes -4.52807
50
root -0.323407 15.8442 -31.3047 17.3597 -3.81721 3.93615
lowerback -16.2915 1.37797 -6.43892
upperback -5.12469 2.94762 -2.3588
thorax 3.44846 1.45989 1.69668
lowerneck -4.29427 -2.40023 0.157782
upperneck 6.31477 -3.32631 1.48513
head 2.77526 -1.60009 0.32508
rclavicle -1.65399e-014 -1.03368e-014
rhumerus -29.8193 1.91006 -84.7052
rradius 60.8279
rwrist -17.9437
rhand -19.3736 -35.5364
rfingers 7.12502
rthumb 6.94454 -65.4025
lclavicle -1.65399e-014 -1.03368e-014
lhumerus -80.9147 39.3204 12.5852
lradius 10.0172
lwrist -60.1112
lhand -17.7149 -15.6167
lfingers 7.12502
lthumb 8.54549 14.1904
rfemur -6.2542 -3.63977 14.3045
rtibia 50.4071
rfoot 14.3824 16.5918
rtoes -18.8834
lfemur -51.3255 -1.13438 -26.5567
ltibia 40.1995
lfoot -6.78352 -2.5053
ltoes -3.86312
51
root -0.314917 15.8744 -31.0716 17.3363 -4.00264 4.3944
lowerback -16.0814 1.26999 -6.83565
upperback -5.17672 2.85517 -2.56301
thorax 3.27643 1.42018 1.67736
lowerneck -4.2772 -2.16937 0.271031
upperneck 5.954 -3.01857 1.48175
head 2.6461 -1.44747 0.31812
rclavicle -2.44381e-014 -8.74653e-015
rhumerus -30.7278 1.31707 -85.062
rradius 60.5041
rwrist -16.6201
rhand -16.4523 -44.2176
rfingers 7.12502
rthumb 9.7638 -73.9712
lclavicle -2.44381e-014 -8.74653e-015
lhumerus -77.5297 38.7575 18.0436
lradius 10.3997
lwrist -54.6122
lhand -17.6492 -15.8936
lfingers 7.12502
lthumb 8.60889 13.9109
rfemur -8.27871 -3.68196 13.673
rtibia 53.8128
rfoot 15.4496 16.0289
rtoes -18.9408
lfemur -50.5104 -1.09429 -27.2368
ltibia 40.5213
lfoot -7.66764 -2.36303
ltoes -3.27147
52
root -0.313511 15.8992 -30.8513 17.2975 -4.29271 4.92522
lowerback -15.941 1.1523 -7.46216
upperback -5.16885 2.79025 -2.7066
thorax 3.18736 1.39143 1.85867
lowerneck -4.31354 -2.10963 0.429187
upperneck 5.82678 -2.93164 1.23646
head 2.60218 -1.40938 0.21618
rclavicle -6.06623e-015 -5.96354e-015
rhumerus -31.4561 1.02929 -85.448
rradius 58.8923
rwrist -17.1924
rhand -16.8426 -43.0134
rfingers 7.12502
rthumb 9.38723 -72.7843
lclavicle -6.06623e-015 -5.96354e-015
lhumerus -74.9863 38.6056 22.0855
lradius 10.8655
lwrist -49.859
lhand -16.8061 -15.6733
lfingers 7.12502
lthumb 9.42244 14.0961
rfemur -10.3373 -3.70355 13.001
rtibia 57.1069
rfoot 16.5851 14.8104
rtoes -12.5111
lfemur -49.6683 -0.958165 -27.9863
ltibia 40.7391
lfoot -8.60043 -2.11554
ltoes -3.67956
53
root -0.313789 15.9235 -30.6362 17.2878 -4.55609 5.20251
lowerback -15.8607 1.09642 -7.79794
upperback -5.21825 2.76017 -2.80304
thorax 3.08058 1.38157 1.93456
lowerneck -3.94742 -2.02837 0.384595
upperneck 5.53946 -2.81797 1.32721
head 2.44027 -1.35481 0.262321
rclavicle 2.97716e-014 1.59028e-015
rhumerus -32.1022 0.587204 -85.862
rradius 57.2139
rwrist -17.7852
rhand -16.1684 -42.0033
rfingers 7.12502
rthumb 10.0377 -71.744
lclavicle 2.97716e-014 1.59028e-015
lhumerus -72.9048 38.4309 25.2123
lradius 11.2693
lwrist -46.024
lhand -16.1298 -14.9878
lfingers 7.12502
lthumb 10.075 14.751
rfemur -12.3869 -3.86652 12.6171
rtibia 60.1994
rfoot 14.8303 13.285
rtoes -15.2594
lfemur -48.8058 -0.841045 -28.4196
ltibia 40.8901
lfoot -9.69376 -1.65033
ltoes -4.96124
54
root -0.309607 15.9602 -30.4167 17.3043 -4.67491 5.45499
lowerback -15.9456 0.973595 -8.03632
upperback -5.21898 2.64677 -2.87996
thorax 3.12586 1.32373 1.96914
lowerneck -3.62555 -1.89257 0.274624
upperneck 5.31271 -2.63516 1.52707
head 2.3101 -1.2635 0.354673
rclavicle 1.03457e-014 2.8625e-014
rhumerus -32.6262 -0.161231 -86.1444
rradius 55.735
rwrist -16.9816
rhand -14.2737 -49.7916
rfingers 7.12502
rthumb 11.8652 -79.4354
lclavicle 1.03457e-014 2.8625e-014
lhumerus -71.3482 38.4477 27.4905
lradius 11.516
lwrist -43.4782
lhand -16.1114 -14.9368
lfingers 7.12502
lthumb 10.0927 14.8011
rfemur -14.3945 -4.40601 12.258
rtibia 63.0543
rfoot 12.9669 11.7624
rtoes -16.9706
lfemur -47.8916 -0.926084 -28.7087
ltibia 40.954
lfoot -10.627 -1.44591
ltoes -2.428
55
root -0.300438 16.0004 -30.1959 17.3561 -4.52259 5.63887
lowerback -15.981 0.767254 -8.12491
upperback -5.18895 2.39568 -2.89305
thorax 3.19529 1.19639 1.9625
lowerneck -4.05665 -1.89647 0.431543
upperneck 6.01008 -2.64186 1.15725
head 2.61317 -1.26751 0.202693
rclavicle -3.18774e-014 2.78299e-015
rhumerus -33.0875 -0.761143 -86.4031
rradius 53.4963
rwrist -17.0841
rhand -14.3875 -49.1878
rfingers 7.12502
rthumb 11.7554 -78.8379
lclavicle -3.18774e-014 2.78299e-015
lhumerus -70.2542 38.8891 29.0128
lradius 11.6349
lwrist -42.1225
lhand -16.6558 -15.1199
lfingers 7.12502
lthumb 9.56743 14.6429
rfemur -16.3754 -5.15474 12.0772
rtibia 65.6791
rfoot 11.0773 10.0897
rtoes -18.4428
lfemur -46.9578 -1.06422 -28.9527
ltibia 40.8946
lfoot -11.4396 -1.61898
ltoes 0.823807
56
root -0.2969 16.031 -29.987 17.4404 -4.3626 5.6413
lowerback -15.8281 0.62557 -8.04441
upperback -5.21537 2.17867 -2.89101
thorax 3.10849 1.09277 1.87737
lowerneck -4.00752 -1.73891 0.289372
upperneck 5.74128 -2.43333 1.40574
head 2.51923 -1.16132 0.31509
rclavicle -2.46912e-014 5.56597e-015
rhumerus -33.4465 -1.24274 -86.7461
rradius 51.7471
rwrist -17.1563
rhand -15.1718 -51.0492
rfingers 7.12502
rthumb 10.999 -80.7411
lclavicle -2.46912e-014 5.56597e-015
lhumerus -68.9617 39.3766 30.563
lradius 11.7113
lwrist -41.1081
lhand -17.3621 -14.6581
lfingers 7.12502
lthumb 8.88589 15.1348
rfemur -18.4965 -5.6516 12.2177
rtibia 68.1345
rfoot 8.90851 8.31986
rtoes -21.3839
lfemur -46.0933 -0.838942 -29.2117
ltibia 40.6952
lfoot -12.2879 -1.51175
ltoes -1.81574
57
root -0.296388 16.0654 -29.7845 17.599 -4.32503 5.61124
lowerback -15.7576 0.513722 -7.93192
upperback -5.29632 2.00202 -2.91893
thorax 3.00599 1.01018 1.75164
lowerneck -4.03936 -1.79839 0.378637
upperneck 6.07706 -2.51629 1.28195
head 2.63471 -1.20192 0.255823
rclavicle -4.57671e-015 -3.53837e-014
rhumerus -33.9579 -1.78058 -87.088
rradius 50.1077
rwrist -16.9501
rhand -16.6942 -65.5705
rfingers 7.12502
rthumb 9.53037 95.3349
lclavicle -4.57671e-015 -3.53837e-014
lhumerus -67.5553 39.7925 32.0847
lradius 11.7774
lwrist -40.0565
lhand -17.543 -14.2095
lfingers 7.12502
lthumb 8.71135 15.5907
rfemur -20.8317 -5.94359 12.4125
rtibia 70.3464
rfoot 7.18895 6.5897
rtoes -20.8976
lfemur -45.2838 -0.521122 -29.4205
ltibia 40.3943
lfoot -12.9996 -1.34633
ltoes -4.40077
58
root -0.291643 16.1021 -29.578 17.7813 -4.15149 5.545
lowerback -15.7115 0.34645 -7.67698
upperback -5.46184 1.72637 -2.91104
thorax 2.83808 0.88179 1.56704
lowerneck -3.36121 -1.47469 0.22915
upperneck 5.40558 -2.07645 1.58151
head 2.28987 -0.985345 0.39879
rclavicle 2.20401e-014 -4.73108e-014
rhumerus -34.8644 -2.32117 -87.3388
rradius 48.7881
rwrist -16.5399
rhand -15.022 93.4518
rfingers 7.12502
rthumb 11.1435 123.136
lclavicle 2.20401e-014 -4.73108e-014
lhumerus -66.8393 40.4431 32.6267
lradius 11.6946
lwrist -39.9047
lhand -17.3987 -14.5667
lfingers 7.12502
lthumb 8.85062 15.2277
rfemur -23.0555 -6.30147 12.6535
rtibia 72.2282
rfoot 5.72228 5.26549
rtoes -18.6709
lfemur -44.4252 -0.420533 -29.4676
ltibia 40.0513
lfoot -13.6111 -1.38397
ltoes -4.87203
59
root -0.287687 16.1401 -29.3715 17.8775 -3.87714 5.33847
lowerback -15.5735 0.2249 -7.28413
upperback -5.55641 1.48557 -2.86116
thorax 2.69543 0.767048 1.3557
lowerneck -3.15653 -1.33972 0.341241
upperneck 5.31699 -1.89344 1.48605
head 2.21934 -0.896186 0.356448
rclavicle -4.32046e-015 2.54444e-014
rhumerus -35.6135 -2.97092 -87.4574
rradius 47.1692
rwrist -16.067
rhand -13.9259 94.5449
rfingers 7.12502
rthumb 12.2005 124.169
lclavicle -4.32046e-015 2.54444e-014
lhumerus -63.1779 38.8842 38.266
lradius 12.539
lwrist -35.6875
lhand -16.9707 -14.7084
lfingers 7.12502
lthumb 9.26359 15.068
rfemur -25.1157 -6.49422 13.0683
rtibia 73.7505
rfoot 4.44578 4.11371
rtoes -14.8165
lfemur -43.4796 -0.411542 -29.3038
ltibia 39.7293
lfoot -14.2325 -1.31489
ltoes -5.43064
60
root -0.286246 16.1822 -29.167 17.988 -3.72061 4.97485
lowerback -15.5226 0.162571 -6.82507
upperback -5.61432 1.32221 -2.73889
thorax 2.6304 0.686775 1.19895
lowerneck -3.38026 -1.29193 0.399843
upperneck 5.81988 -1.83555 1.36636
head 2.42414 -0.86491 0.307866
rclavicle -4.62873e-015 -1.74931e-014
rhumerus -36.2418 -3.64306 -87.4266
rradius 45.2733
rwrist -15.5444
rhand -14.3109 -79.0263
rfingers 7.12502
rthumb 11.8293 108.672
lclavicle -4.62873e-015 -1.74931e-014
lhumerus -60.719 38.2981 41.5552
lradius 12.8096
lwrist -33.7437
lhand -17.0745 -14.9729
lfingers 7.12502
lthumb 9.16346 14.808
rfemur -27.2163 -6.47809 13.6943
rtibia 74.9428
rfoot 3.57135 3.31433
rtoes -10.4457
lfemur -42.5616 -0.423041 -28.9051
ltibia 39.4135
lfoot -14.885 -0.834132
ltoes -6.33309
61
root -0.279817 16.2132 -28.9634 18.12 -3.66024 4.68529
lowerback -15.3542 0.0795302 -6.40753
upperback -5.8039 1.11883 -2.58692
thorax 2.36171 0.594337 1.08713
lowerneck -3.45816 -1.19568 0.137647
upperneck 6.24435 -1.70841 1.51939
head 2.58402 -0.799778 0.404571
rclavicle -6.3021e-015 -1.70955e-014
rhumerus -37.1065 -4.37199 -87.2225
rradius 43.285
rwrist -14.6818
rhand -14.1258 -55.1973
rfingers 7.12502
rthumb 12.0078 275.167
lclavicle -6.3021e-015 -1.70955e-014
lhumerus -57.9856 36.9794 45.6171
lradius 13.0374
lwrist -31.155
lhand -17.642 -14.5273
lfingers 7.12502
lthumb 8.61583 15.2769
rfemur -29.2093 -6.63179 14.2602
rtibia 75.9444
rfoot 2.35435 3.1767
rtoes -13.0208
lfemur -41.6435 -0.454678 -28.6096
ltibia 39.0364
lfoot -15.4883 -0.375209
ltoes -7.90609
62
root -0.273239 16.2469 -28.7595 18.2267 -3.76799 4.43141
lowerback -15.8452 0.0335818 -6.07969
upperback -5.55373 1.06041 -2.44647
thorax 2.89831 0.545069 1.04858
lowerneck -3.37695 -1.08903 0.00853188
upperneck 5.95377 -1.5604 1.63464
head 2.47348 -0.727881 0.468832
rclavicle 1.78751e-015 1.31198e-014
rhumerus -37.2885 -5.31546 -86.9568
rradius 41.1072
rwrist -13.5293
rhand -13.6221 -39.9078
rfingers 7.12502
rthumb 12.4935 290.486
lclavicle 1.78751e-015 1.31198e-014
lhumerus -54.7191 35.9048 49.932
lradius 13.4128
lwrist -28.6973
lhand -17.7602 -13.6709
lfingers 7.12502
lthumb 8.50179 16.138
rfemur -31.192 -6.59188 14.7249
rtibia 76.6863
rfoot 0.993369 3.09306
rtoes -16.4176
lfemur -40.6656 -0.281459 -28.4357
ltibia 38.5726
lfoot -15.9798 -0.481514
ltoes -8.19471
63
root -0.270769 16.2921 -28.5526 18.2996 -3.75534 4.10076
lowerback -15.8836 0.0290634 -5.73514
upperback -5.61431 0.995447 -2.29423
thorax 2.864 0.513507 1.00412
lowerneck -3.1837 -1.08937 -0.000965655
upperneck 6.27108 -1.56262 1.60694
head 2.54342 -0.728982 0.462369
rclavicle -7.12528e-015 3.57812e-015
rhumerus -38.0254 -6.32335 -86.541
rradius 39.0008
rwrist -12.423
rhand -14.497 -37.8005
rfingers 7.12502
rthumb 11.6498 292.543
lclavicle -7.12528e-015 3.57812e-015
lhumerus -52.0674 34.377 53.6829
lradius 14.0388
lwrist -26.4337
lhand -17.3332 -13.4269
lfingers 7.12502
lthumb 8.91378 16.3648
rfemur -33.0956 -6.40981 15.291
rtibia 77.1005
rfoot -0.205009 2.96545
rtoes -15.6582
lfemur -39.5887 -0.0509126 -28.1544
ltibia 38.0476
lfoot -16.5151 -0.51493
ltoes -8.3296
